<svg width="24" height="24" viewBox="0 0 24 24" fill="none" xmlns="http://www.w3.org/2000/svg">
<path fill-rule="evenodd" clip-rule="evenodd" d="M8.41243 4.77927C8.73699 4.29243 9.2834 4 9.86852 4H14.3815C14.9666 4 15.513 4.29243 15.8376 4.77927L16.6397 5.98243C16.686 6.05197 16.7641 6.09375 16.8477 6.09375H19.1042C19.6733 6.09375 20.2191 6.31983 20.6215 6.72225C21.0239 7.12467 21.25 7.67047 21.25 8.23958V18.0104C21.25 18.5795 21.0239 19.1253 20.6215 19.5278C20.2191 19.9302 19.6733 20.1562 19.1042 20.1562H5.14583C4.57672 20.1562 4.03092 19.9302 3.6285 19.5278C3.22608 19.1253 3 18.5795 3 18.0104V8.23958C3 7.67047 3.22608 7.12467 3.6285 6.72225C4.03092 6.31983 4.57672 6.09375 5.14583 6.09375H7.40232C7.4859 6.09375 7.56396 6.05197 7.61033 5.98242L8.41243 4.77927ZM9.86852 5.5C9.78493 5.5 9.70687 5.54178 9.6605 5.61133L8.8584 6.81448C8.53384 7.30132 7.98743 7.59375 7.40232 7.59375H5.14583C4.97455 7.59375 4.81028 7.66179 4.68916 7.78291C4.56804 7.90403 4.5 8.0683 4.5 8.23958V18.0104C4.5 18.1817 4.56804 18.346 4.68916 18.4671C4.81028 18.5882 4.97455 18.6562 5.14583 18.6562H19.1042C19.2755 18.6562 19.4397 18.5882 19.5608 18.4671C19.682 18.346 19.75 18.1817 19.75 18.0104V8.23958C19.75 8.0683 19.682 7.90403 19.5608 7.78291C19.4397 7.66179 19.2755 7.59375 19.1042 7.59375H16.8477C16.2626 7.59375 15.7162 7.30132 15.3916 6.81448L14.5895 5.61133C14.5431 5.54178 14.4651 5.5 14.3815 5.5H9.86852ZM13.0399 10.5674C12.603 10.3865 12.1223 10.3391 11.6586 10.4314C11.1949 10.5236 10.7689 10.7513 10.4346 11.0856C10.1002 11.42 9.87255 11.8459 9.78031 12.3097C9.68807 12.7734 9.73541 13.2541 9.91635 13.6909C10.0973 14.1277 10.4037 14.5011 10.7968 14.7638C11.19 15.0265 11.6522 15.1667 12.125 15.1667C12.759 15.1667 13.3671 14.9148 13.8154 14.4665C14.2638 14.0181 14.5156 13.4101 14.5156 12.776C14.5156 12.3032 14.3754 11.841 14.1127 11.4479C13.85 11.0547 13.4767 10.7483 13.0399 10.5674ZM11.366 8.96017C12.1207 8.81005 12.903 8.8871 13.6139 9.18157C14.3248 9.47604 14.9324 9.97472 15.3599 10.6145C15.7874 11.2543 16.0156 12.0065 16.0156 12.776C16.0156 13.8079 15.6057 14.7975 14.8761 15.5271C14.1465 16.2568 13.1569 16.6667 12.125 16.6667C11.3555 16.6667 10.6033 16.4385 9.96348 16.011C9.32367 15.5835 8.825 14.9758 8.53053 14.2649C8.23606 13.554 8.15901 12.7717 8.30913 12.017C8.45925 11.2623 8.8298 10.5691 9.37391 10.025C9.91803 9.48084 10.6113 9.11029 11.366 8.96017Z" fill="black"/>
</svg>
