<svg width="25" height="24" viewBox="0 0 25 24" fill="none" xmlns="http://www.w3.org/2000/svg">
<path fill-rule="evenodd" clip-rule="evenodd" d="M12.8965 19.5C17.0386 19.5 20.3965 16.1421 20.3965 12C20.3965 7.85786 17.0386 4.5 12.8965 4.5C8.75435 4.5 5.39648 7.85786 5.39648 12C5.39648 16.1421 8.75435 19.5 12.8965 19.5ZM12.8965 21C17.867 21 21.8965 16.9706 21.8965 12C21.8965 7.02944 17.867 3 12.8965 3C7.92592 3 3.89648 7.02944 3.89648 12C3.89648 16.9706 7.92592 21 12.8965 21Z" fill="white"/>
<path d="M12.1805 13.4793C12.1132 13.8675 12.4412 14.1897 12.8351 14.1897C13.2291 14.1897 13.5358 13.8645 13.6275 13.4814C14.036 11.7754 15.8879 11.5429 15.8879 9.63909C15.8879 7.98431 14.6468 7 13.0063 7C11.3898 7 10.3562 7.89457 10.0153 9.19437C9.90528 9.6139 10.26 9.98146 10.6938 9.98146C11.0893 9.98146 11.3996 9.66467 11.5667 9.3061C11.8179 8.76692 12.3216 8.41227 13.0063 8.41227C13.7909 8.41227 14.3758 8.96862 14.3758 9.66762C14.3758 10.9826 12.535 11.4354 12.1805 13.4793ZM11.9507 16.0585C11.9507 16.6006 12.3787 17 12.9207 17C13.4628 17 13.8908 16.6006 13.8908 16.0585C13.8908 15.5164 13.4628 15.1027 12.9207 15.1027C12.3787 15.1027 11.9507 15.5164 11.9507 16.0585Z" fill="white"/>
</svg>
