<svg width="25" height="25" viewBox="0 0 25 25" fill="none" xmlns="http://www.w3.org/2000/svg">
<path fill-rule="evenodd" clip-rule="evenodd" d="M9.77837 9.38178C9.48117 9.67899 8.9993 9.67899 8.7021 9.38178L5.65794 6.33763C5.36074 6.04042 5.36074 5.55856 5.65794 5.26135C5.95515 4.96415 6.43701 4.96415 6.73422 5.26135L9.77837 8.3055C10.0756 8.60271 10.0756 9.08458 9.77837 9.38178Z" fill="white"/>
<path fill-rule="evenodd" clip-rule="evenodd" d="M16.0175 15.6182C16.3147 15.321 16.7966 15.321 17.0938 15.6182L20.138 18.6624C20.4352 18.9596 20.4352 19.4414 20.138 19.7386C19.8407 20.0359 19.3589 20.0359 19.0617 19.7386L16.0175 16.6945C15.7203 16.3973 15.7203 15.9154 16.0175 15.6182Z" fill="white"/>
<path fill-rule="evenodd" clip-rule="evenodd" d="M16.0167 9.39361C15.7194 9.0964 15.7194 8.61454 16.0167 8.31733L19.0608 5.27318C19.358 4.97597 19.8399 4.97597 20.1371 5.27318C20.4343 5.57038 20.4343 6.05225 20.1371 6.34946L17.0929 9.39361C16.7957 9.69081 16.3139 9.69081 16.0167 9.39361Z" fill="white"/>
<path fill-rule="evenodd" clip-rule="evenodd" d="M9.77729 15.6064C10.0745 15.9036 10.0745 16.3855 9.77729 16.6827L6.73314 19.7268C6.43593 20.024 5.95406 20.024 5.65686 19.7268C5.35965 19.4296 5.35965 18.9477 5.65686 18.6505L8.70101 15.6064C8.99822 15.3092 9.48008 15.3092 9.77729 15.6064Z" fill="white"/>
<path fill-rule="evenodd" clip-rule="evenodd" d="M4.64817 4.21972C4.79175 4.07784 4.9858 3.99881 5.18765 4.00001L9.46716 4.02559C9.88746 4.0281 10.2262 4.37086 10.2236 4.79117C10.2211 5.21147 9.87837 5.55016 9.45806 5.54765L5.93964 5.52662L5.91856 9.0962C5.91608 9.5165 5.57334 9.85521 5.15303 9.85273C4.73273 9.85025 4.39402 9.50751 4.3965 9.08721L4.42207 4.75655C4.42327 4.5547 4.5046 4.3616 4.64817 4.21972Z" fill="white"/>
<path fill-rule="evenodd" clip-rule="evenodd" d="M21.1468 20.7803C21.0032 20.9222 20.8091 21.0012 20.6073 21L16.3278 20.9744C15.9075 20.9719 15.5688 20.6291 15.5713 20.2088C15.5738 19.7885 15.9166 19.4498 16.3369 19.4524L19.8553 19.4734L19.8764 15.9038C19.8788 15.4835 20.2216 15.1448 20.6419 15.1473C21.0622 15.1498 21.4009 15.4925 21.3984 15.9128L21.3728 20.2435C21.3717 20.4453 21.2903 20.6384 21.1468 20.7803Z" fill="white"/>
<path fill-rule="evenodd" clip-rule="evenodd" d="M21.1787 4.26536C21.3206 4.40893 21.3996 4.60299 21.3984 4.80484L21.3728 9.08435C21.3703 9.50465 21.0276 9.84334 20.6073 9.84083C20.187 9.83832 19.8483 9.49556 19.8508 9.07525L19.8718 5.55683L16.3022 5.53575C15.8819 5.53326 15.5432 5.19053 15.5457 4.77022C15.5482 4.34992 15.8909 4.0112 16.3112 4.01369L20.6419 4.03926C20.8437 4.04045 21.0368 4.12178 21.1787 4.26536Z" fill="white"/>
<path fill-rule="evenodd" clip-rule="evenodd" d="M4.6162 20.7346C4.47432 20.5911 4.39529 20.397 4.3965 20.1952L4.42207 15.9157C4.42459 15.4953 4.76735 15.1567 5.18765 15.1592C5.60796 15.1617 5.94665 15.5044 5.94413 15.9248L5.92311 19.4432L9.49268 19.4643C9.91299 19.4667 10.2517 19.8095 10.2492 20.2298C10.2467 20.6501 9.904 20.9888 9.48369 20.9863L5.15303 20.9607C4.95119 20.9595 4.75808 20.8782 4.6162 20.7346Z" fill="white"/>
</svg>
