<svg width="24" height="24" viewBox="0 0 24 24" fill="none" xmlns="http://www.w3.org/2000/svg">
<path d="M12 4C6.54545 4 1.88727 7.39273 0 12.1818C1.88727 16.9709 6.54545 20.3636 12 20.3636C17.4545 20.3636 22.1127 16.9709 24 12.1818C22.1127 7.39273 17.4545 4 12 4ZM12 17.6364C8.98909 17.6364 6.54545 15.1927 6.54545 12.1818C6.54545 9.17091 8.98909 6.72727 12 6.72727C15.0109 6.72727 17.4545 9.17091 17.4545 12.1818C17.4545 15.1927 15.0109 17.6364 12 17.6364ZM12 8.90909C10.1891 8.90909 8.72727 10.3709 8.72727 12.1818C8.72727 13.9927 10.1891 15.4545 12 15.4545C13.8109 15.4545 15.2727 13.9927 15.2727 12.1818C15.2727 10.3709 13.8109 8.90909 12 8.90909Z" fill="#343A44" fill-opacity="0.4"/>
</svg>
