<svg width="24" height="24" viewBox="0 0 24 24" fill="none" xmlns="http://www.w3.org/2000/svg">
<path fill-rule="evenodd" clip-rule="evenodd" d="M11.66 3.09352C11.8689 2.96965 12.1265 2.96878 12.3361 3.09122L18.6587 6.78352C18.8591 6.9006 18.9875 7.11396 18.9991 7.34963C19.0108 7.5853 18.9042 7.81081 18.7163 7.94797L13.1655 12L18.7163 16.052C18.9042 16.1892 19.0108 16.4147 18.9991 16.6504C18.9875 16.886 18.8591 17.0994 18.6587 17.2165L12.3361 20.9088C12.1265 21.0312 11.8689 21.0303 11.66 20.9065C11.4512 20.7826 11.3226 20.5545 11.3226 20.3077V13.3453L6.07121 17.1787C5.76677 17.401 5.34369 17.3289 5.12623 17.0178C4.90878 16.7066 4.97929 16.2743 5.28373 16.052L10.8346 12L5.28373 7.94797C4.97929 7.72573 4.90878 7.29335 5.12623 6.98222C5.34369 6.67109 5.76677 6.59902 6.07121 6.82126L11.3226 10.6547V3.69231C11.3226 3.44552 11.4512 3.21739 11.66 3.09352ZM12.6774 13.3453L17.0683 16.5505L12.6774 19.1147V13.3453ZM12.6774 10.6547V4.88528L17.0683 7.44947L12.6774 10.6547Z" fill="black"/>
</svg>
