<svg width="129" height="128" viewBox="0 0 129 128" fill="none" xmlns="http://www.w3.org/2000/svg">
<path d="M31.1768 99.7126H94.3469C96.1846 99.7126 97.8 99.2818 99.193 98.4203C100.586 97.5587 101.671 96.4116 102.447 94.9788C103.223 93.5461 103.611 92.0095 103.611 90.3691C103.611 89.5759 103.52 88.7873 103.338 88.0034C103.155 87.2196 102.846 86.452 102.41 85.7006L70.7619 29.5918C69.9268 28.0318 68.7766 26.858 67.3114 26.0702C65.8461 25.2825 64.3296 24.8887 62.7619 24.8887C61.2206 24.8887 59.7061 25.2825 58.2182 26.0702C56.7304 26.858 55.5518 28.0318 54.6826 29.5918L23.0182 85.7799C22.2283 87.2155 21.8333 88.7452 21.8333 90.3691C21.8333 92.0095 22.228 93.5461 23.0174 94.9788C23.8067 96.4116 24.9045 97.5587 26.3108 98.4203C27.7172 99.2818 29.3392 99.7126 31.1768 99.7126ZM62.7619 73.4685C61.5346 73.4685 60.9133 72.7678 60.8978 71.3665L60.5326 49.424C60.5249 48.7575 60.7306 48.2165 61.1498 47.8011C61.569 47.3858 62.1063 47.1781 62.7619 47.1781C63.4361 47.1781 63.9782 47.3878 64.388 47.807C64.7978 48.2262 64.9989 48.769 64.9911 49.4355L64.654 71.3665C64.6122 72.7678 63.9815 73.4685 62.7619 73.4685ZM62.7619 85.4081C61.8871 85.4081 61.1416 85.101 60.5251 84.4868C59.9088 83.8727 59.6006 83.1414 59.6006 82.2931C59.6006 81.4448 59.9088 80.7116 60.5251 80.0936C61.1416 79.4755 61.8871 79.1665 62.7619 79.1665C63.6444 79.1665 64.4004 79.4736 65.0299 80.0878C65.6596 80.702 65.9744 81.4371 65.9744 82.2931C65.9744 83.1491 65.6596 83.8823 65.0299 84.4926C64.4004 85.103 63.6444 85.4081 62.7619 85.4081Z" fill="#F04E45"/>
</svg>
