<svg width="35" height="29" viewBox="0 0 35 29" fill="none" xmlns="http://www.w3.org/2000/svg">
<g id="Group 876">
<path id="Vector (Stroke)" d="M15.2314 1.27239C16.2682 -0.424128 18.7321 -0.424131 19.7689 1.27239L33.7726 24.1875C34.8553 25.9592 33.5802 28.2328 31.5038 28.2328H3.49651C1.42015 28.2328 0.145045 25.9592 1.22777 24.1875L15.2314 1.27239Z" fill="#F04E45"/>
<path id="Stroke 3 (Stroke)" fill-rule="evenodd" clip-rule="evenodd" d="M17.5083 20.1641C16.8179 20.1641 16.2583 19.6044 16.2583 18.9141L16.2583 9.30622C16.2583 8.61586 16.8179 8.05622 17.5083 8.05622C18.1987 8.05622 18.7583 8.61586 18.7583 9.30622L18.7583 18.9141C18.7583 19.6044 18.1987 20.1641 17.5083 20.1641Z" fill="white"/>
<path id="Stroke 2 (Stroke)" fill-rule="evenodd" clip-rule="evenodd" d="M19.1821 22.7357C19.1821 23.6562 18.4359 24.4023 17.5155 24.4023L17.4998 24.4023C16.5793 24.4023 15.8331 23.6562 15.8331 22.7357C15.8331 21.8152 16.5793 21.069 17.4998 21.069L17.5155 21.069C18.4359 21.069 19.1821 21.8152 19.1821 22.7357Z" fill="white"/>
</g>
</svg>
