<svg width="128" height="128" viewBox="0 0 128 128" fill="none" xmlns="http://www.w3.org/2000/svg">
<path d="M30.6767 99.7128H93.8469C95.6845 99.7128 97.2999 99.282 98.693 98.4205C100.086 97.559 101.171 96.4118 101.947 94.9791C102.723 93.5463 103.111 92.0097 103.111 90.3693C103.111 89.5761 103.02 88.7875 102.838 88.0037C102.655 87.2198 102.346 86.4522 101.91 85.7008L70.2618 29.592C69.4267 28.032 68.2766 26.8582 66.8113 26.0705C65.346 25.2827 63.8295 24.8889 62.2618 24.8889C60.7206 24.8889 59.206 25.2827 57.7182 26.0705C56.2303 26.8582 55.0518 28.032 54.1826 29.592L22.5181 85.7802C21.7282 87.2157 21.3333 88.7454 21.3333 90.3693C21.3333 92.0097 21.7279 93.5463 22.5173 94.9791C23.3067 96.4118 24.4045 97.559 25.8108 98.4205C27.2172 99.282 28.8391 99.7128 30.6767 99.7128ZM62.2618 73.4687C61.0346 73.4687 60.4132 72.768 60.3977 71.3667L60.0325 49.4242C60.0248 48.7577 60.2306 48.2167 60.6498 47.8013C61.0689 47.386 61.6063 47.1783 62.2618 47.1783C62.9361 47.1783 63.4781 47.388 63.8879 47.8072C64.2978 48.2264 64.4988 48.7692 64.4911 49.4357L64.154 71.3667C64.1121 72.768 63.4814 73.4687 62.2618 73.4687ZM62.2618 85.4083C61.3871 85.4083 60.6415 85.1012 60.0251 84.4871C59.4087 83.8729 59.1006 83.1416 59.1006 82.2934C59.1006 81.445 59.4087 80.7118 60.0251 80.0938C60.6415 79.4757 61.3871 79.1667 62.2618 79.1667C63.1443 79.1667 63.9003 79.4738 64.5299 80.088C65.1595 80.7022 65.4743 81.4373 65.4743 82.2934C65.4743 83.1493 65.1595 83.8825 64.5299 84.4928C63.9003 85.1032 63.1443 85.4083 62.2618 85.4083Z" fill="#F04E45"/>
</svg>
